# xmcd CD database file
#
# Track frame offsets:
#	150
#	16950
#	33400
#	50350
#	65230
#	82717
#
# Disc length: 1366 seconds
#
# Revision: 0
# Processed by: cddbd v1.5.1PL0 Copyright (c) Steve Scherf et al.
# Submitted via: CDex 1.51
#
DISCID=42055406
DTITLE=中原小麦(桃井はるこ) - えんどれすさま〜ばけーしょん！
DYEAR=2004
DGENRE=JPop
TTITLE0=ぱらだいす
TTITLE1=アルタイル
TTITLE2=恋せよ乙女
TTITLE3=LoveSong探して
TTITLE4=Dang Dang気になる
TTITLE5=背中ごしにセンチメンタル
EXTD=YEAR: 2004
EXTT0=
EXTT1=
EXTT2=
EXTT3=
EXTT4=
EXTT5=
PLAYORDER=
